<svg xmlns="http://www.w3.org/2000/svg" version="1.1" xmlns:xlink="http://www.w3.org/1999/xlink" xmlns:svgjs="http://svgjs.dev/svgjs" width="500" height="500"><svg width="500" height="500" viewBox="0 0 500 500" fill="none" xmlns="http://www.w3.org/2000/svg">
<path fill-rule="evenodd" clip-rule="evenodd" d="M250 0C111.929 0 0 111.929 0 250C0 388.071 111.929 500 250 500C388.071 500 500 388.071 500 250C500 111.929 388.071 0 250 0ZM155.455 120.455H135V140.909H155.455V120.455ZM298.636 120.455H278.182H257.727V100H237.272H216.819H196.364H175.909H155.455V120.455H175.909H196.364H216.819V140.909H237.272H257.727H278.182H298.636V161.364V181.818V202.273V222.728V243.181V263.636V284.091V304.545V325V345.454V365.909V386.364H278.182H257.727V365.909H278.182V345.454V325V304.545V284.091V263.636V243.181V222.728V202.273V181.818V161.364H257.727V181.818V202.273H237.272H216.819V222.728H237.272H257.727V243.181H237.272H216.819V263.636H237.272H257.727V284.091V304.545V325V345.454V365.909H237.272H216.819H196.364H175.909V386.364H155.455V406.818H175.909V386.364H196.364H216.819V406.818H237.272H257.727H278.182H298.636V386.364H319.09V365.909H339.546V345.454V325V304.545V284.091V263.636V243.181V222.728V202.273V181.818V161.364V140.909V120.455H360V100H339.546V120.455H319.09V100H298.636V120.455ZM298.636 120.455H319.09V140.909H298.636V120.455Z" fill="#D9D9D9"></path>
</svg><style>@media (prefers-color-scheme: light) { :root { filter: none; } }
@media (prefers-color-scheme: dark) { :root { filter: none; } }
</style></svg>