<svg width="44" height="60" viewBox="0 0 44 60" fill="none" xmlns="http://www.w3.org/2000/svg">
<path d="M0 4H4V8.00001H0V4ZM4 0H8V4H4V0ZM8 0H12V4H8V0ZM12 0H16V4H12V0ZM16 0H20V4H16V0ZM20 0H24V4H20V0ZM20 4H24V8.00001H20V4ZM16 4H20V8.00001H16V4ZM24 4H28V8.00001H24V4ZM28 4H32V8.00001H28V4ZM32 0H36V4H32V0ZM40 0H44V4H40V0ZM36 4H40V8.00001H36V4ZM36 8.00001H40V12H36V8.00001ZM32 8.00001H36V12H32V8.00001ZM32 12H36V16H32V12ZM36 12H40V16H36V12ZM36 16H40V20H36V16ZM36 20H40V24H36V20ZM32 20H36V24H32V20ZM32 16H36V20H32V16ZM24 12H28V16H24V12ZM24 16H28V20H24V16ZM24 20H28V24H24V20ZM24 24H28V28H24V24ZM24 28H28V32H24V28ZM24 32H28V36H24V32ZM32 24H36V28H32V24ZM36 24H40V28H36V24ZM36 28H40V32H36V28ZM32 28H36V32H32V28ZM32 32H36V36H32V32ZM36 32H40V36H36V32ZM20 20H24V24H20V20ZM16 20H20V24H16V20ZM20 28H24V32H20V28ZM16 28H20V32H16V28ZM24 48H28V52H24V48ZM20 52H24V56H20V52ZM16 52H20V56H16V52ZM12 52H16V56H12V52ZM8 52H12V56H8V52ZM4 56H8V60H4V56ZM16 56H20V60H16V56ZM20 56H24V60H20V56ZM24 56H28V60H24V56ZM28 56H32V60H28V56ZM32 52H36V56H32V52ZM32 48H36V52H32V48ZM36 48H40V52H36V48ZM24 44H28V48H24V44ZM24 40H28V44H24V40ZM24 36H28V40H24V36ZM32 36H36V40H32V36ZM32 40H36V44H32V40ZM32 44H36V48H32V44ZM36 44H40V48H36V44ZM36 40H40V44H36V40ZM36 36H40V40H36V36Z" fill="#222222"/>
</svg>
